<svg xmlns="http://www.w3.org/2000/svg" viewBox="0 0 35 35">
  <defs>
    <style>
      .cls-1 {
        fill: #90d1e3;
      }
    </style>
  </defs>
  <g id="Group_3570" data-name="Group 3570" transform="translate(0 0)">
    <path id="Path_3764" data-name="Path 3764" class="cls-1" d="M231.5,318.955a.56.56,0,0,1-.432-.185l-5.6-5.6a.611.611,0,0,1,.865-.865l5.168,5.168,12.332-12.5a.611.611,0,0,1,.865.865l-12.765,12.95A.625.625,0,0,1,231.5,318.955Z" transform="translate(-217.58 -294.373)"/>
    <path id="Path_3765" data-name="Path 3765" class="cls-1" d="M17.5,35A17.5,17.5,0,1,1,35,17.5,17.512,17.512,0,0,1,17.5,35Zm0-33.765A16.265,16.265,0,1,0,33.765,17.5,16.273,16.273,0,0,0,17.5,1.235Z"/>
  </g>
</svg>
