<?xml version="1.0" encoding="UTF-8"?>
<svg width="20px" height="20px" viewBox="0 0 20 20" version="1.1" xmlns="http://www.w3.org/2000/svg" xmlns:xlink="http://www.w3.org/1999/xlink">
    <!-- Generator: Sketch 57.1 (83088) - https://sketch.com -->
    <title>搜索@3x</title>
    <desc>Created with Sketch.</desc>
    <g id="页面" stroke="none" stroke-width="1" fill="none" fill-rule="evenodd">
        <g id="态势分析-人员---街道-copy-2" transform="translate(-1430.000000, -123.000000)" fill-rule="nonzero">
            <g id="搜索框" transform="translate(1100.000000, 113.000000)">
                <g id="Group-29">
                    <g id="编组">
                        <g id="搜索" transform="translate(330.000000, 10.000000)">
                            <g id="Group">
                                <rect id="Rectangle-path" fill="#000000" opacity="0" x="0" y="0" width="20" height="20"></rect>
                                <path d="M13.5850781,14.0922656 L13.4963477,14.179043 C12.693457,14.8770117 11.7526758,15.4048828 10.71875,15.7298242 C9.94568359,15.9713477 9.14896484,16.09375 8.35478516,16.09375 C7.59080078,16.09375 6.83009766,15.9833789 6.08976563,15.7596875 C5.83511719,15.6821094 5.69140625,15.4136133 5.76925781,15.1604297 C5.84710937,14.9065234 6.11705078,14.7637305 6.37134766,14.8413086 C7.69884766,15.2405859 9.1009375,15.2318359 10.4280664,14.8140039 C11.7854102,14.3877734 12.9601172,13.5615625 13.8197656,12.4282617 C14.9224414,10.9761914 15.3899219,9.18351563 15.1381836,7.38244141 C14.8867969,5.57775391 13.9459961,3.98251953 12.4864453,2.88490234 C11.0276172,1.78730469 9.22681641,1.32210938 7.41691406,1.57236328 C5.60445312,1.82300781 4.0015625,2.75958984 2.89888672,4.21201172 C1.98794922,5.41089844 1.50880859,6.83929688 1.51462891,8.34271484 C1.52044922,9.79769531 2.00285156,11.2384766 2.87197266,12.3954492 C3.03056641,12.6103906 2.98583984,12.9116602 2.77300781,13.0697656 C2.55728516,13.2275 2.25460937,13.1830469 2.095625,12.9710352 C1.10425781,11.6497461 0.552753906,10.0067969 0.546881456,8.34855469 C0.540742187,6.63382813 1.08607422,5.00544922 2.12873047,3.63351563 C3.38710937,1.97527344 5.21773437,0.907539062 7.28521484,0.621210937 C9.35267578,0.338144531 11.4081445,0.868925781 13.0707031,2.12134766 C14.7369141,3.37378906 15.809375,5.19634766 16.0971484,7.25421875 C16.3816406,9.31173828 15.8483203,11.3575977 14.5899219,13.0129297 C14.5041992,13.128125 14.4144531,13.2392773 14.3224805,13.3473633 L19.3286719,18.5906641 C19.5278711,18.7991992 19.5191211,19.1316797 19.3100977,19.329668 C19.100332,19.5276367 18.7663867,19.5188867 18.5675586,19.3107227 L13.5850781,14.0922461 L13.5850781,14.0922656 Z M7.93613281,13.5546875 C7.92121094,13.5546875 7.90591797,13.5546875 7.89097656,13.5517578 C6.91089844,13.4625391 5.97519531,13.1045117 5.18660156,12.5112109 C4.46681641,11.9714258 3.89740234,11.2557422 3.53732422,10.4388086 C3.42957031,10.1973242 3.54025391,9.91105469 3.78634766,9.80652344 C4.02919922,9.69943359 4.3171875,9.80980469 4.42205078,10.0541797 C4.71585938,10.7188867 5.18041016,11.303457 5.76804688,11.7448828 C6.41283203,12.2307617 7.17775391,12.5228516 7.97800781,12.5946094 C8.24523438,12.6186328 8.44001953,12.8510156 8.41597656,13.1165234 C8.39486328,13.3667578 8.18515625,13.5546875 7.93613281,13.5546875 Z" id="Shape" fill="#4AACFF"></path>
                            </g>
                        </g>
                    </g>
                </g>
            </g>
        </g>
    </g>
</svg>